<svg width="59" height="89" viewBox="0 0 59 89" fill="none" xmlns="http://www.w3.org/2000/svg">
<g clip-path="url(#clip0_0_267)">
<path d="M14.5586 88.9905C22.5972 88.9905 29.1173 82.3508 29.1173 74.1648V59.3391H14.5586C6.52013 59.3391 0 65.9788 0 74.1648C0 82.3508 6.52013 88.9905 14.5586 88.9905Z" fill="#0ACF83"/>
<path d="M0 44.4954C0 36.3094 6.52013 29.6697 14.5586 29.6697H29.1173V59.3393H14.5586C6.52013 59.3211 0 52.6814 0 44.4954Z" fill="#A259FF"/>
<path d="M0 14.8257C0 6.63973 6.52013 0 14.5586 0H29.1173V29.6696H14.5586C6.52013 29.6696 0 23.0117 0 14.8257Z" fill="#F24E1E"/>
<path d="M29.1351 0H43.6938C51.7323 0 58.2524 6.63973 58.2524 14.8257C58.2524 23.0117 51.7323 29.6514 43.6938 29.6514H29.1351V0Z" fill="#FF7262"/>
<path d="M58.2525 44.4954C58.2525 52.6814 51.7323 59.3211 43.6938 59.3211C35.6553 59.3211 29.1352 52.6814 29.1352 44.4954C29.1352 36.3094 35.6553 29.6697 43.6938 29.6697C51.7323 29.6697 58.2525 36.3094 58.2525 44.4954Z" fill="#1ABCFE"/>
</g>
<defs>
<clipPath id="clip0_0_267">
<rect width="58.2524" height="88.9906" fill="white"/>
</clipPath>
</defs>
</svg>
